<svg id="圖層_1" data-name="圖層 1" xmlns="http://www.w3.org/2000/svg" viewBox="0 0 60 40"><defs><style>.cls-1{fill:none;stroke:#000;stroke-width:0.5px;}</style></defs><path class="cls-1" d="M4.44,20.1C4.44,8.58,9.21,2.91,16.27,2.91S28.15,8.67,28.15,20.1,23.34,37.65,16.27,37.65,4.44,31.62,4.44,20.1Zm16.15,0c0-9.13-1.93-11-4.32-11S12,11,12,20.1s1.89,11.34,4.27,11.34S20.59,29.28,20.59,20.1Z"/><path class="cls-1" d="M32.16,28.69c0-4.18,2.38-6.79,5.49-8.46V20A9.71,9.71,0,0,1,33.28,12c0-5.57,4.41-9,10.62-9,6,0,10,3.51,10,9a9.25,9.25,0,0,1-4.23,7.43v.22a9.67,9.67,0,0,1,5.62,9c0,5.17-4.68,9.09-11.7,9.09C37.06,37.65,32.16,34,32.16,28.69Zm15.75-.45c0-2.92-2.57-4.18-6.66-5.94A7.73,7.73,0,0,0,39,27.75c0,2.74,2.2,4.32,4.81,4.32C46.11,32.07,47.91,30.9,47.91,28.24ZM47.46,12.4c0-2.43-1.4-4-3.78-4A3.23,3.23,0,0,0,40.3,12c0,2.66,2.07,4.1,5.36,5.4A7.65,7.65,0,0,0,47.46,12.4Z"/></svg>