<svg id="圖層_1" data-name="圖層 1" xmlns="http://www.w3.org/2000/svg" viewBox="0 0 60 40"><defs><style>.cls-1{fill:none;stroke:#000;stroke-width:0.5px;}</style></defs><path class="cls-1" d="M4.6,19.82C4.6,8.3,9.37,2.63,16.43,2.63S28.31,8.39,28.31,19.82,23.5,37.37,16.43,37.37,4.6,31.34,4.6,19.82Zm16.15,0c0-9.13-1.93-11-4.32-11s-4.27,1.9-4.27,11,1.89,11.34,4.27,11.34S20.75,29,20.75,19.82Z"/><path class="cls-1" d="M36.5,28.59a7.58,7.58,0,0,0,5.13,2.3c3.42,0,6.12-2.43,6.44-9.77a8.78,8.78,0,0,1-6.39,3.38c-5.63,0-9.81-3.33-9.81-10.53s5-11.34,11-11.34c6.35,0,12.51,4.82,12.51,17S49,37.37,42.17,37.37a13.58,13.58,0,0,1-9.85-4ZM47.93,15.73c-.67-5.54-2.79-7.11-4.86-7.11S39.16,10.1,39.16,14c0,3.6,1.8,4.91,4.05,4.91A5.47,5.47,0,0,0,47.93,15.73Z"/></svg>