<?xml version="1.0" encoding="utf-8"?>
<!-- Generator: Adobe Illustrator 26.0.1, SVG Export Plug-In . SVG Version: 6.00 Build 0)  -->
<svg version="1.1" id="圖層_1" xmlns="http://www.w3.org/2000/svg" xmlns:xlink="http://www.w3.org/1999/xlink" x="0px" y="0px"
	 viewBox="0 0 117.7 228.4" style="enable-background:new 0 0 117.7 228.4;" xml:space="preserve">
<style type="text/css">
	.st0{fill:#93A5D8;fill-opacity:0.7;}
	.st1{fill:url(#SVGID_1_);}
	.st2{fill:url(#SVGID_00000160906708942734622060000005304156145650829976_);}
	.st3{fill:url(#SVGID_00000013902939410681012220000000206795714167600820_);}
	.st4{fill:url(#SVGID_00000164496186542303851440000018411271794510528915_);}
	.st5{fill:url(#SVGID_00000054247039911627907140000010371685214617779328_);}
	.st6{fill:url(#SVGID_00000158747158635099571020000008064627080611653053_);}
	.st7{fill:#1C1F2A;}
	.st8{fill:none;stroke:url(#SVGID_00000178925087627254002190000017083008906499355305_);stroke-width:20;stroke-miterlimit:10;}
	.st9{fill:url(#SVGID_00000183967967976169557620000011539651318061187494_);}
	.st10{fill:url(#SVGID_00000097497545960832899040000011630913099632009365_);}
	.st11{clip-path:url(#SVGID_00000163030380351856029090000011544082057158247863_);fill:#F2F2F2;}
	.st12{clip-path:url(#SVGID_00000163030380351856029090000011544082057158247863_);}
	.st13{fill:none;stroke:url(#SVGID_00000173852357610842673710000004875145474354198707_);stroke-width:20;stroke-miterlimit:10;}
	.st14{fill:url(#SVGID_00000090281248548596679270000013429087433538483596_);}
	.st15{fill:url(#SVGID_00000116208589069714067010000002213682820858924418_);}
	.st16{clip-path:url(#SVGID_00000094591274032938588230000013834091131332910229_);fill:#F2F2F2;}
	.st17{clip-path:url(#SVGID_00000094591274032938588230000013834091131332910229_);}
	.st18{fill:none;stroke:url(#SVGID_00000110456706259081162270000008448525490893435810_);stroke-width:20;stroke-miterlimit:10;}
	.st19{fill:url(#SVGID_00000036974413403302937130000002849006544366949055_);}
	.st20{fill:url(#SVGID_00000076562883622092151960000016147828331020170654_);}
	.st21{clip-path:url(#SVGID_00000047020459225107496400000017449131027506033550_);fill:#F2F2F2;}
	.st22{clip-path:url(#SVGID_00000047020459225107496400000017449131027506033550_);}
	.st23{fill:none;stroke:url(#SVGID_00000013908560319305434040000001666951968163547521_);stroke-width:20;stroke-miterlimit:10;}
	.st24{fill:url(#SVGID_00000094619680055264683010000012940891546159476869_);}
	.st25{fill:url(#SVGID_00000001639525956614601360000007911255905738248879_);}
	.st26{clip-path:url(#SVGID_00000006690852177736723990000014676392113397856435_);fill:#F2F2F2;}
	.st27{clip-path:url(#SVGID_00000006690852177736723990000014676392113397856435_);}
	.st28{fill:none;stroke:url(#SVGID_00000116941905488377668760000016584113138045450932_);stroke-width:20;stroke-miterlimit:10;}
	.st29{fill:url(#SVGID_00000033358733059976264750000011188114442735657355_);}
	.st30{fill:url(#SVGID_00000128460138599344436300000000396449340839251328_);}
	.st31{fill:none;stroke:url(#SVGID_00000002373423699210453540000017073627695686535601_);stroke-width:20;stroke-miterlimit:10;}
	.st32{fill:url(#SVGID_00000162312869098427499760000017814284108747827849_);}
	.st33{fill:url(#SVGID_00000111891270340361452650000016201001955338468485_);}
	.st34{fill:none;stroke:url(#SVGID_00000133494603823086956700000009377634876429511328_);stroke-width:20;stroke-miterlimit:10;}
	.st35{fill:url(#SVGID_00000064333049369131015400000007989949012883853234_);}
	.st36{fill:url(#SVGID_00000109751723576989057190000006574743349704730027_);}
	.st37{fill:none;stroke:url(#SVGID_00000052801716876715296480000008691108888561335951_);stroke-width:20;stroke-miterlimit:10;}
	.st38{fill:url(#SVGID_00000165933374277533761660000011108695360714003079_);}
	.st39{fill:url(#SVGID_00000152225419243532607900000004041351591116071049_);}
	.st40{fill:url(#SVGID_00000057123058246091530650000018262631160036634290_);}
	.st41{fill:url(#SVGID_00000126308136872724092070000011949321437657928842_);}
	.st42{fill:url(#SVGID_00000081647836283558663550000004117005591235169674_);}
	.st43{fill:url(#SVGID_00000016774301305417048470000008511672333463783828_);}
	.st44{fill:url(#SVGID_00000139260432250370167840000000647585668534342810_);}
	.st45{fill:url(#SVGID_00000137814521167981985570000009824258119179973526_);}
	.st46{fill:url(#SVGID_00000065764483694507155940000005601263904322353043_);}
	.st47{fill:url(#SVGID_00000122699103121283784090000015640065291904074389_);}
	.st48{fill:url(#SVGID_00000042000896622607187160000010480776880742325648_);}
	.st49{fill:url(#SVGID_00000158727771091079676020000013236483490716138414_);}
	.st50{fill:url(#SVGID_00000129893047919382764830000004538982068322777989_);}
	.st51{fill:url(#SVGID_00000068673049276495117380000017936760816979625366_);}
	.st52{fill:url(#SVGID_00000136395125285941281120000009253672686041595793_);}
	.st53{fill:url(#SVGID_00000125576996670618423300000005931650245843622042_);}
	.st54{fill:url(#SVGID_00000047044052548356189460000006386307057035330748_);}
	.st55{fill:#D4D5D7;}
	.st56{fill:#B9B2AA;}
	.st57{fill:#EC433C;}
	.st58{fill:#D8D6D6;}
	.st59{fill:#DBA316;}
	.st60{fill:#DB6533;}
	.st61{fill:#DADADC;}
	.st62{fill:#A6A396;}
	.st63{fill:#C6C5C3;}
	.st64{fill:#F45245;}
	.st65{fill:#C53832;}
	.st66{fill:#066794;}
	.st67{fill:#034E6A;}
	.st68{fill:#09556F;}
</style>
<g>
	<path class="st55" d="M105.8,118.4c-4.3-8.4-10.6-14.6-18.4-18.1C87.9,37.3,59.8,5.9,59.8,5.9s-32.4,28-30.1,94.4
		c-7.6,3.3-13.9,9.7-18.3,18.1c-7.2,13.5-5.4,24.1-5.5,39.1l0.4,3.4l13.5,0l0.5-3.2c0-0.1,2.2-12.5,9.7-18.7v6.1h9.8
		c0.1,2.8,0.5,5.8,2.7,8c0.2,0.2,0.4,0.4,0.6,0.5c-2.7,10.4,2.9,23,5.7,28.4c5,9.5,7.4,9.7,8.6,9.9l0.6,0.1l0.6-0.1
		c1.4-0.3,2.8-1.2,5.2-4.7c1.5-2.2,3.1-5,4.4-7.9c2.8-6.1,6.8-16.8,4.3-25.8c0.2-0.2,0.4-0.3,0.6-0.5c2.1-2.1,2.5-5.1,2.5-7.8h11.6
		v-6c6,4.7,8.4,12.7,9.8,18.9l0.7,3h13.3l0.4-3.4C111.3,142.2,112.1,130.7,105.8,118.4z"/>
	<g>
		<path class="st56" d="M83,83.2c-0.6-9.4-2.2-18.3-4.3-26.4H37.9c-2.4,10.1-4.1,21.8-4.1,35.1c0,20.5,0,49.5,0,49.5h13.9
			C67.8,124.9,78.3,98.7,83,83.2z"/>
		<path class="st57" d="M59.7,11.1c0,0-14.5,15.6-21.8,45.7h40.8C71.9,29.8,59.7,11.1,59.7,11.1z"/>
		<path class="st58" d="M58.1,66.2c-9.5,0-17.3,7.7-17.3,17.3s7.7,17.3,17.3,17.3c9.5,0,17.3-7.7,17.3-17.3S67.7,66.2,58.1,66.2z
			 M58.1,94.8c-6.3,0-11.3-5.1-11.3-11.3s5.1-11.3,11.3-11.3s11.3,5.1,11.3,11.3S64.4,94.8,58.1,94.8z"/>
		<path class="st59" d="M63.7,151.3c1.2,2.4,2,5.1,2,8c0,8.8-7.9,15.9-7.9,15.9s-7.9-7.1-7.9-15.9c0-2.9,0.9-5.7,2-8h-3.9
			c-1,3.1-1.7,6.5-1.7,10.1c0,14.7,11.5,26.7,11.5,26.7s11.5-11.9,11.5-26.7c0-3.6-0.7-7-1.7-10.1c0,0-0.1,0-0.1,0H63.7z"/>
		<path class="st60" d="M57.8,175.3c0,0,7.9-7.1,7.9-15.9c0-2.9-0.9-5.7-2-8H52c-1.2,2.4-2,5.1-2,8
			C49.9,168.1,57.8,175.3,57.8,175.3z"/>
		<path class="st57" d="M33.8,102.8c0,0-24.1,8.3-24.1,36.4c0,4.2,0,17.9,0,17.9h6.9c0,0,3.3-20,17.3-24.4
			C33.8,115.7,33.8,102.8,33.8,102.8z"/>
		<path class="st61" d="M33.8,117.4v7.2h29.4c1.7-2.3,3.3-4.7,4.7-7.2H33.8z"/>
		<path class="st62" d="M47.8,141.3h35.5c0,0,0-7.3,0-16.7H63.2C58.9,130.7,53.8,136.4,47.8,141.3z"/>
		<path class="st62" d="M83.3,91.8c0-2.9-0.1-5.8-0.3-8.6c-2.8,9.1-7.5,21.9-15,34.3h15.3C83.3,108.2,83.3,98.3,83.3,91.8z"/>
		<path class="st63" d="M68,117.4c-1.5,2.4-3,4.8-4.7,7.2h20.1c0-2.3,0-4.7,0-7.2H68z"/>
		<path class="st64" d="M58.4,15.7c0,0-11.7,18.9-16.4,38.1c5.4,0,5.4,0,5.4,0S50,32.6,58.4,15.7z"/>
		<path class="st57" d="M107.4,139.2c0-28-24.1-36.4-24.1-36.4s0,12.8,0,29.8c10.7,3.4,15.1,15.8,16.6,21.5
			c3.3-4.3,5.9-9.1,7.5-12.7C107.4,140.5,107.4,139.8,107.4,139.2z"/>
		<path class="st65" d="M99.9,154.1c0.5,1.8,0.7,2.9,0.7,2.9h6.9c0,0,0-10.2,0-15.7C105.8,145.1,103.3,149.9,99.9,154.1z"/>
		<path class="st66" d="M70.3,141.3h-7.5h-10h-9.2v5.8c0,1.9,1.3,3.5,3,4C61,149.9,67.7,144.2,70.3,141.3z"/>
		<path class="st67" d="M46.7,151.1c0.4,0.1,0.8,0.2,1.2,0.2h0.2H52h11.7h3.8c0,0,0.1,0,0.1,0c2.3-0.1,4.1-1.9,4.1-4.2v-5.8h-1.3
			C67.7,144.2,61,149.9,46.7,151.1z"/>
		<path class="st66" d="M67.7,77.4c-2-3.2-5.5-5.3-9.6-5.3c-6.3,0-11.3,5.1-11.3,11.3c0,5.6,4,10.2,9.3,11.1
			C64.5,90.5,67,81.4,67.7,77.4z"/>
		<path class="st68" d="M67.7,77.4c-0.7,4-3.2,13.1-11.6,17.2c0.7,0.1,1.3,0.2,2,0.2c6.3,0,11.3-5.1,11.3-11.3
			C69.5,81.2,68.8,79.2,67.7,77.4z"/>
	</g>
</g>
<g>
	<g>
		<path class="st57" d="M29.5,199.9v24.3H26v-1.4H9.8v1.4H6.4v-24.3H29.5z M26,219.7v-16.6H9.8v16.6H26z M23.4,206.4v10.3h-11v-10.3
			H23.4z M20.1,209.2h-4.7v4.7h4.7V209.2z"/>
		<path class="st57" d="M41.7,218.8c1.7-0.3,3.5-0.6,5.2-0.9l0.2,2.8c-4.7,0.9-9.8,1.8-13.5,2.5l-0.7-3c1.6-0.2,3.6-0.5,5.8-0.9
			v-3.7h-4.9v-2.8h4.9v-2.4h3v2.4h4.9v2.8h-4.9V218.8z M33.1,200.6h14v2.8h-3.8c1.4,1.8,3.1,4.2,3.8,5.7l-2.4,1.6
			c-0.2-0.4-0.4-0.9-0.6-1.3c-7.4,0.6-8.6,0.8-9.4,1.1c-0.2-0.6-0.7-2.1-1-2.9c0.4-0.1,0.8-0.5,1.2-1.1c0.3-0.4,1-1.6,1.7-3h-3.4
			V200.6z M42.6,206.9c-0.5-0.8-1.1-1.5-1.6-2.2l2.3-1.3H40c-0.7,1.3-1.5,2.6-2.3,3.8L42.6,206.9z M51.2,217.8h-3v-16.3h3V217.8z
			 M56.5,199.3v20.9c0,1.7-0.3,2.5-1.3,3c-1,0.5-2.6,0.6-4.7,0.6c-0.1-0.8-0.6-2.2-1.1-3.1c1.4,0.1,2.9,0.1,3.3,0.1
			c0.5,0,0.6-0.2,0.6-0.6v-20.9H56.5z"/>
		<path class="st57" d="M66.1,203.5v16.3c0,1.6-0.3,2.5-1.3,3c-1,0.5-2.5,0.6-4.5,0.6c-0.1-0.9-0.5-2.2-0.9-3.1
			c1.3,0.1,2.6,0.1,3.1,0.1c0.4,0,0.5-0.1,0.5-0.5v-16.2h-3.7v-3h9.9v3H66.1z M73.4,218.9l2.5,1.7c-1.8,1.4-4.6,2.8-6.9,3.6
			c-0.5-0.6-1.3-1.6-2-2.2c2.2-0.7,4.8-2,6.2-3.1h-2.8v-14.2h4.2c0.1-0.6,0.3-1.2,0.4-1.9h-5.4V200h14.8v2.7h-5.7
			c-0.2,0.6-0.5,1.3-0.7,1.9h5.7v14.2H73.4z M73.3,208.7h7.1V207h-7.1V208.7z M73.3,212.6h7.1v-1.7h-7.1V212.6z M73.3,216.5h7.1
			v-1.8h-7.1V216.5z M79.5,218.9c1.7,0.9,4.2,2.4,5.4,3.5l-2.5,1.9c-1.1-1-3.5-2.6-5.2-3.6L79.5,218.9z"/>
		<path class="st57" d="M95.3,216.7l0.3,3c-3,0.7-6.2,1.5-8.8,2.1l-0.6-3.2c1.3-0.2,3.1-0.6,5-1c0.5-2.8,1-7,1.2-10l2.7,0.4
			c-0.4,3-1,6.5-1.5,9.1L95.3,216.7z M95.6,206.7h-9.1v-2.9h3.9c-0.3-1.1-0.9-2.6-1.5-3.7l2.6-0.7c0.7,1.2,1.4,2.7,1.7,3.8l-2,0.6
			h4.2V206.7z M88,217c0-2.5-0.4-6.1-0.8-9l2.3-0.4c0.5,2.9,0.9,6.5,0.9,8.9L88,217z M104.9,211.4l-0.7,1.7h6.6v8.4
			c0,1.2-0.2,1.9-0.9,2.3c-0.7,0.4-1.5,0.5-2.7,0.5c-0.1-0.7-0.4-1.6-0.7-2.3v2h-2.4v-8.2h-1.5v8.3h-2.4v-8.3h-1.4v8.4H96V213h5
			c0.1-0.5,0.2-1.1,0.3-1.7h-5.9v-2.8h15.9v2.8H104.9z M110.5,207.2H96.3v-6.9h2.9v4.1h2.5v-5.3h3.1v5.3h2.6v-4.1h3V207.2z
			 M108,215.7h-1.5v6c0.5,0,1,0,1.2,0c0.2,0,0.3-0.1,0.3-0.3V215.7z"/>
	</g>
</g>
</svg>
