<?xml version="1.0" encoding="utf-8"?>
<!-- Generator: Adobe Illustrator 26.0.1, SVG Export Plug-In . SVG Version: 6.00 Build 0)  -->
<svg version="1.1" id="圖層_1" xmlns="http://www.w3.org/2000/svg" xmlns:xlink="http://www.w3.org/1999/xlink" x="0px" y="0px"
	 viewBox="0 0 117.7 228.4" style="enable-background:new 0 0 117.7 228.4;" xml:space="preserve">
<style type="text/css">
	.st0{fill:#93A5D8;fill-opacity:0.7;}
	.st1{fill:#667CAD;fill-opacity:0.7;}
	.st2{fill:url(#SVGID_1_);}
	.st3{fill:url(#SVGID_00000083794020114681986270000007720898835300620177_);}
	.st4{fill:url(#SVGID_00000103246394368173916260000007040712895214455729_);}
	.st5{fill:url(#SVGID_00000023969446228534895670000012395593449305660823_);}
	.st6{fill:url(#SVGID_00000142160410802278447790000000955711822991873422_);}
	.st7{fill:url(#SVGID_00000031178282061598522380000008507130010558236828_);}
	.st8{fill:#1C1F2A;}
	.st9{fill:none;stroke:url(#SVGID_00000027605180532342822220000017478164079141706930_);stroke-width:20;stroke-miterlimit:10;}
	.st10{fill:url(#SVGID_00000075849138272443920210000005607006239306946736_);}
	.st11{fill:url(#SVGID_00000031185595258040698410000006831286804809498543_);}
	.st12{clip-path:url(#SVGID_00000074422221783701081640000001657048903152142476_);fill:#F2F2F2;}
	.st13{clip-path:url(#SVGID_00000074422221783701081640000001657048903152142476_);}
	.st14{fill:none;stroke:url(#SVGID_00000131329687857757313980000014317269804379981740_);stroke-width:20;stroke-miterlimit:10;}
	.st15{fill:url(#SVGID_00000119098159812397709070000011221131989382918545_);}
	.st16{fill:url(#SVGID_00000043455043153878883320000008380060705189171841_);}
	.st17{clip-path:url(#SVGID_00000078010230903095060920000014382547750478713476_);fill:#F2F2F2;}
	.st18{clip-path:url(#SVGID_00000078010230903095060920000014382547750478713476_);}
	.st19{fill:none;stroke:url(#SVGID_00000181810232889714418650000016122897087394376880_);stroke-width:20;stroke-miterlimit:10;}
	.st20{fill:url(#SVGID_00000171712231374822402350000008962229766828475275_);}
	.st21{fill:url(#SVGID_00000084497663836526743590000013901934862229370012_);}
	.st22{clip-path:url(#SVGID_00000176037449233591669340000010361521140006418614_);fill:#F2F2F2;}
	.st23{clip-path:url(#SVGID_00000176037449233591669340000010361521140006418614_);}
	.st24{fill:none;stroke:url(#SVGID_00000179620535782296085590000005408481333821313187_);stroke-width:20;stroke-miterlimit:10;}
	.st25{fill:url(#SVGID_00000136369665965607165050000006373395942499518120_);}
	.st26{fill:url(#SVGID_00000066483619959050500280000003208694436159404990_);}
	.st27{clip-path:url(#SVGID_00000147940028135874054340000007147098697569593759_);fill:#F2F2F2;}
	.st28{clip-path:url(#SVGID_00000147940028135874054340000007147098697569593759_);}
	.st29{fill:none;stroke:url(#SVGID_00000109007565898072223830000014280979471684476294_);stroke-width:20;stroke-miterlimit:10;}
	.st30{fill:url(#SVGID_00000049200597786928396510000012483507946941053611_);}
	.st31{fill:url(#SVGID_00000080202047575731780110000017358841859695314876_);}
	.st32{fill:none;stroke:url(#SVGID_00000106852437980567016790000017672627853825812888_);stroke-width:20;stroke-miterlimit:10;}
	.st33{fill:url(#SVGID_00000083080303794041534290000006457948587781300398_);}
	.st34{fill:url(#SVGID_00000151516229646774195410000015959512717800164740_);}
	.st35{fill:none;stroke:url(#SVGID_00000003796909134558064970000004697173508635459747_);stroke-width:20;stroke-miterlimit:10;}
	.st36{fill:url(#SVGID_00000127026645589734790720000016526238918326245300_);}
	.st37{fill:url(#SVGID_00000129175253287841422480000011493868732898371772_);}
	.st38{fill:none;stroke:url(#SVGID_00000073706393983647879230000011879317797477491388_);stroke-width:20;stroke-miterlimit:10;}
	.st39{fill:url(#SVGID_00000088103867051130083880000009335591620958718362_);}
	.st40{fill:url(#SVGID_00000057140814166738400390000006181536016909190529_);}
	.st41{fill:url(#SVGID_00000058562501884798200700000006295497378316105602_);}
	.st42{fill:url(#SVGID_00000145038032026968583010000004276316651232561833_);}
	.st43{fill:url(#SVGID_00000013886587835883192950000014720683646888269202_);}
	.st44{fill:url(#SVGID_00000112610615398103947840000007253187857218647219_);}
	.st45{fill:url(#SVGID_00000146496544290670853570000000352576823304056993_);}
	.st46{fill:url(#SVGID_00000070090572773522615600000014952582582549603226_);}
	.st47{fill:url(#SVGID_00000008118625702445315430000007292127430865435290_);}
	.st48{fill:url(#SVGID_00000112617917733360409210000017732996577578233014_);}
	.st49{fill:url(#SVGID_00000081633767125588229820000000635815957385023111_);}
	.st50{fill:url(#SVGID_00000103224111106838898860000018156796165243051422_);}
	.st51{fill:url(#SVGID_00000138575641490402679830000006625736342153054611_);}
	.st52{fill:url(#SVGID_00000049941680127598116650000000289626975306905248_);}
	.st53{fill:url(#SVGID_00000094579052951475140590000005475634103022484882_);}
	.st54{fill:url(#SVGID_00000132799926106923827240000013673502628491899268_);}
	.st55{fill:url(#SVGID_00000036957696395540604610000015989347999467432108_);}
	.st56{fill:#F8F9FC;}
	.st57{fill:#EAE1D7;}
	.st58{fill:#FA4740;}
	.st59{fill:#FCF9F9;}
	.st60{fill:#FCBC19;}
	.st61{fill:#FC743B;}
	.st62{fill:#FAFAFC;}
	.st63{fill:#D7D3C2;}
	.st64{fill:#F7F6F3;}
	.st65{fill:#FF5648;}
	.st66{fill:#F6463E;}
	.st67{fill:#0889C5;}
	.st68{fill:#04729B;}
	.st69{fill:#0D7BA0;}
	.st70{fill:none;}
</style>
<g>
	<path class="st56" d="M105.8,118.4c-4.3-8.4-10.6-14.6-18.4-18.1C87.9,37.3,59.8,5.9,59.8,5.9s-32.4,28-30.1,94.4
		c-7.6,3.3-13.9,9.7-18.3,18.1c-7.2,13.5-5.4,24.1-5.5,39.1l0.4,3.4l13.5,0l0.5-3.2c0-0.1,2.2-12.5,9.7-18.7v6.1h9.8
		c0.1,2.8,0.5,5.8,2.7,8c0.2,0.2,0.4,0.4,0.6,0.5c-2.7,10.4,2.9,23,5.7,28.4c5,9.5,7.4,9.7,8.6,9.9l0.6,0.1l0.6-0.1
		c1.4-0.3,2.8-1.2,5.2-4.7c1.5-2.2,3.1-5,4.4-7.9c2.8-6.1,6.8-16.8,4.3-25.8c0.2-0.2,0.4-0.3,0.6-0.5c2.1-2.1,2.5-5.1,2.5-7.8h11.6
		v-6c6,4.7,8.4,12.7,9.8,18.9l0.7,3h13.3l0.4-3.4C111.3,142.2,112.1,130.7,105.8,118.4z"/>
	<g>
		<path class="st57" d="M83,83.2c-0.6-9.4-2.2-18.3-4.3-26.4H37.9c-2.4,10.1-4.1,21.8-4.1,35.1c0,20.5,0,49.5,0,49.5h13.9
			C67.8,124.9,78.3,98.7,83,83.2z"/>
		<path class="st58" d="M59.7,11.1c0,0-14.5,15.6-21.8,45.7h40.8C71.9,29.8,59.7,11.1,59.7,11.1z"/>
		<path class="st59" d="M58.1,66.2c-9.5,0-17.3,7.7-17.3,17.3s7.7,17.3,17.3,17.3c9.5,0,17.3-7.7,17.3-17.3S67.7,66.2,58.1,66.2z
			 M58.1,94.8c-6.3,0-11.3-5.1-11.3-11.3s5.1-11.3,11.3-11.3s11.3,5.1,11.3,11.3S64.4,94.8,58.1,94.8z"/>
		<path class="st60" d="M63.7,151.3c1.2,2.4,2,5.1,2,8c0,8.8-7.9,15.9-7.9,15.9s-7.9-7.1-7.9-15.9c0-2.9,0.9-5.7,2-8h-3.9
			c-1,3.1-1.7,6.5-1.7,10.1c0,14.7,11.5,26.7,11.5,26.7s11.5-11.9,11.5-26.7c0-3.6-0.7-7-1.7-10.1c0,0-0.1,0-0.1,0H63.7z"/>
		<path class="st61" d="M57.8,175.3c0,0,7.9-7.1,7.9-15.9c0-2.9-0.9-5.7-2-8H52c-1.2,2.4-2,5.1-2,8
			C49.9,168.1,57.8,175.3,57.8,175.3z"/>
		<path class="st58" d="M33.8,102.8c0,0-24.1,8.3-24.1,36.4c0,4.2,0,17.9,0,17.9h6.9c0,0,3.3-20,17.3-24.4
			C33.8,115.7,33.8,102.8,33.8,102.8z"/>
		<path class="st62" d="M33.8,117.4v7.2h29.4c1.7-2.3,3.3-4.7,4.7-7.2H33.8z"/>
		<path class="st63" d="M47.8,141.3h35.5c0,0,0-7.3,0-16.7H63.2C58.9,130.7,53.8,136.4,47.8,141.3z"/>
		<path class="st63" d="M83.3,91.8c0-2.9-0.1-5.8-0.3-8.6c-2.8,9.1-7.5,21.9-15,34.3h15.3C83.3,108.2,83.3,98.3,83.3,91.8z"/>
		<path class="st64" d="M68,117.4c-1.5,2.4-3,4.8-4.7,7.2h20.1c0-2.3,0-4.7,0-7.2H68z"/>
		<path class="st65" d="M58.4,15.7c0,0-11.7,18.9-16.4,38.1c5.4,0,5.4,0,5.4,0S50,32.6,58.4,15.7z"/>
		<path class="st58" d="M107.4,139.2c0-28-24.1-36.4-24.1-36.4s0,12.8,0,29.8c10.7,3.4,15.1,15.8,16.6,21.5
			c3.3-4.3,5.9-9.1,7.5-12.7C107.4,140.5,107.4,139.8,107.4,139.2z"/>
		<path class="st66" d="M99.9,154.1c0.5,1.8,0.7,2.9,0.7,2.9h6.9c0,0,0-10.2,0-15.7C105.8,145.1,103.3,149.9,99.9,154.1z"/>
		<path class="st67" d="M70.3,141.3h-7.5h-10h-9.2v5.8c0,1.9,1.3,3.5,3,4C61,149.9,67.7,144.2,70.3,141.3z"/>
		<path class="st68" d="M46.7,151.1c0.4,0.1,0.8,0.2,1.2,0.2h0.2H52h11.7h3.8c0,0,0.1,0,0.1,0c2.3-0.1,4.1-1.9,4.1-4.2v-5.8h-1.3
			C67.7,144.2,61,149.9,46.7,151.1z"/>
		<path class="st67" d="M67.7,77.4c-2-3.2-5.5-5.3-9.6-5.3c-6.3,0-11.3,5.1-11.3,11.3c0,5.6,4,10.2,9.3,11.1
			C64.5,90.5,67,81.4,67.7,77.4z"/>
		<path class="st69" d="M67.7,77.4c-0.7,4-3.2,13.1-11.6,17.2c0.7,0.1,1.3,0.2,2,0.2c6.3,0,11.3-5.1,11.3-11.3
			C69.5,81.2,68.8,79.2,67.7,77.4z"/>
	</g>
</g>
<g>
	<g>
		<path class="st58" d="M29.5,199.9v24.3H26v-1.4H9.8v1.4H6.4v-24.3H29.5z M26,219.7v-16.6H9.8v16.6H26z M23.4,206.4v10.3h-11v-10.3
			H23.4z M20.1,209.2h-4.7v4.7h4.7V209.2z"/>
		<path class="st58" d="M41.7,218.8c1.7-0.3,3.5-0.6,5.2-0.9l0.2,2.8c-4.7,0.9-9.8,1.8-13.5,2.5l-0.7-3c1.6-0.2,3.6-0.5,5.8-0.9
			v-3.7h-4.9v-2.8h4.9v-2.4h3v2.4h4.9v2.8h-4.9V218.8z M33.1,200.6h14v2.8h-3.8c1.4,1.8,3.1,4.2,3.8,5.7l-2.4,1.6
			c-0.2-0.4-0.4-0.9-0.6-1.3c-7.4,0.6-8.6,0.8-9.4,1.1c-0.2-0.6-0.7-2.1-1-2.9c0.4-0.1,0.8-0.5,1.2-1.1c0.3-0.4,1-1.6,1.7-3h-3.4
			V200.6z M42.6,206.9c-0.5-0.8-1.1-1.5-1.6-2.2l2.3-1.3H40c-0.7,1.3-1.5,2.6-2.3,3.8L42.6,206.9z M51.2,217.8h-3v-16.3h3V217.8z
			 M56.5,199.3v20.9c0,1.7-0.3,2.5-1.3,3c-1,0.5-2.6,0.6-4.7,0.6c-0.1-0.8-0.6-2.2-1.1-3.1c1.4,0.1,2.9,0.1,3.3,0.1
			c0.5,0,0.6-0.2,0.6-0.6v-20.9H56.5z"/>
		<path class="st58" d="M66.1,203.5v16.3c0,1.6-0.3,2.5-1.3,3c-1,0.5-2.5,0.6-4.5,0.6c-0.1-0.9-0.5-2.2-0.9-3.1
			c1.3,0.1,2.6,0.1,3.1,0.1c0.4,0,0.5-0.1,0.5-0.5v-16.2h-3.7v-3h9.9v3H66.1z M73.4,218.9l2.5,1.7c-1.8,1.4-4.6,2.8-6.9,3.6
			c-0.5-0.6-1.3-1.6-2-2.2c2.2-0.7,4.8-2,6.2-3.1h-2.8v-14.2h4.2c0.1-0.6,0.3-1.2,0.4-1.9h-5.4V200h14.8v2.7h-5.7
			c-0.2,0.6-0.5,1.3-0.7,1.9h5.7v14.2H73.4z M73.3,208.7h7.1V207h-7.1V208.7z M73.3,212.6h7.1v-1.7h-7.1V212.6z M73.3,216.5h7.1
			v-1.8h-7.1V216.5z M79.5,218.9c1.7,0.9,4.2,2.4,5.4,3.5l-2.5,1.9c-1.1-1-3.5-2.6-5.2-3.6L79.5,218.9z"/>
		<path class="st58" d="M95.3,216.7l0.3,3c-3,0.7-6.2,1.5-8.8,2.1l-0.6-3.2c1.3-0.2,3.1-0.6,5-1c0.5-2.8,1-7,1.2-10l2.7,0.4
			c-0.4,3-1,6.5-1.5,9.1L95.3,216.7z M95.6,206.7h-9.1v-2.9h3.9c-0.3-1.1-0.9-2.6-1.5-3.7l2.6-0.7c0.7,1.2,1.4,2.7,1.7,3.8l-2,0.6
			h4.2V206.7z M88,217c0-2.5-0.4-6.1-0.8-9l2.3-0.4c0.5,2.9,0.9,6.5,0.9,8.9L88,217z M104.9,211.4l-0.7,1.7h6.6v8.4
			c0,1.2-0.2,1.9-0.9,2.3c-0.7,0.4-1.5,0.5-2.7,0.5c-0.1-0.7-0.4-1.6-0.7-2.3v2h-2.4v-8.2h-1.5v8.3h-2.4v-8.3h-1.4v8.4H96V213h5
			c0.1-0.5,0.2-1.1,0.3-1.7h-5.9v-2.8h15.9v2.8H104.9z M110.5,207.2H96.3v-6.9h2.9v4.1h2.5v-5.3h3.1v5.3h2.6v-4.1h3V207.2z
			 M108,215.7h-1.5v6c0.5,0,1,0,1.2,0c0.2,0,0.3-0.1,0.3-0.3V215.7z"/>
	</g>
</g>
</svg>
