<?xml version="1.0" encoding="utf-8"?>
<!-- Generator: Adobe Illustrator 26.0.1, SVG Export Plug-In . SVG Version: 6.00 Build 0)  -->
<svg version="1.1" id="圖層_1" xmlns="http://www.w3.org/2000/svg" xmlns:xlink="http://www.w3.org/1999/xlink" x="0px" y="0px"
	 viewBox="0 0 339 101.6" style="enable-background:new 0 0 339 101.6;" xml:space="preserve">
<style type="text/css">
	.st0{fill:#93A5D8;fill-opacity:0.7;}
	.st1{fill:url(#SVGID_1_);}
	.st2{fill:url(#SVGID_00000030472802743300855530000010371288533892203691_);}
	.st3{fill:url(#SVGID_00000156555952632393437200000011688239304288693938_);}
	.st4{fill:url(#SVGID_00000090974788730070245950000007627874378758279040_);}
	.st5{fill:url(#SVGID_00000027593515548482428800000013159648324983240598_);}
	.st6{fill:url(#SVGID_00000122708660405222553890000010209520691086070715_);}
	.st7{fill:#1C1F2A;}
	.st8{fill:none;stroke:url(#SVGID_00000140716464923984811340000004384653476543971203_);stroke-width:20;stroke-miterlimit:10;}
	.st9{fill:url(#SVGID_00000050629953673048345500000009448921434909489069_);}
	.st10{fill:url(#SVGID_00000155826040171818967400000006761194403256836492_);}
	.st11{clip-path:url(#SVGID_00000102544761067584321080000003862188904997051018_);fill:#F2F2F2;}
	.st12{clip-path:url(#SVGID_00000102544761067584321080000003862188904997051018_);}
	.st13{fill:none;stroke:url(#SVGID_00000138567945396015906980000003498602297371034773_);stroke-width:20;stroke-miterlimit:10;}
	.st14{fill:url(#SVGID_00000165950771213986164170000004807237107930271407_);}
	.st15{fill:url(#SVGID_00000130630803396503463090000004057158122947771527_);}
	.st16{clip-path:url(#SVGID_00000013191885251740580020000011247392104319974275_);fill:#F2F2F2;}
	.st17{clip-path:url(#SVGID_00000013191885251740580020000011247392104319974275_);}
	.st18{fill:none;stroke:url(#SVGID_00000018959549201890556000000002291013679790999181_);stroke-width:20;stroke-miterlimit:10;}
	.st19{fill:url(#SVGID_00000123400569576730739970000012782236326348082575_);}
	.st20{fill:url(#SVGID_00000039830095681077582700000011935137659305265543_);}
	.st21{clip-path:url(#SVGID_00000162324298032362300510000001074521486392754823_);fill:#F2F2F2;}
	.st22{clip-path:url(#SVGID_00000162324298032362300510000001074521486392754823_);}
	.st23{fill:none;stroke:url(#SVGID_00000158715610764059098910000008226918593034492826_);stroke-width:20;stroke-miterlimit:10;}
	.st24{fill:url(#SVGID_00000000919797703311381620000006237270548414342816_);}
	.st25{fill:url(#SVGID_00000022544012270976939680000014530605180280504992_);}
	.st26{clip-path:url(#SVGID_00000134930261684715337890000000011724289842529463_);fill:#F2F2F2;}
	.st27{clip-path:url(#SVGID_00000134930261684715337890000000011724289842529463_);}
	.st28{fill:none;stroke:url(#SVGID_00000110446404478684001100000018274980368497294502_);stroke-width:20;stroke-miterlimit:10;}
	.st29{fill:url(#SVGID_00000119117063909219936340000009220989832613828264_);}
	.st30{fill:url(#SVGID_00000107576773572939298740000017371932358479641016_);}
	.st31{fill:none;stroke:url(#SVGID_00000095327012802885601540000003904387077302609571_);stroke-width:20;stroke-miterlimit:10;}
	.st32{fill:url(#SVGID_00000097470207572266255460000001583980499530600104_);}
	.st33{fill:url(#SVGID_00000111898317546007755630000004971804068443560097_);}
	.st34{fill:none;stroke:url(#SVGID_00000106831182335272755060000016477806168681870470_);stroke-width:20;stroke-miterlimit:10;}
	.st35{fill:url(#SVGID_00000099652688579451419190000010139866859603839166_);}
	.st36{fill:url(#SVGID_00000114771213186529177590000014358646410975992962_);}
	.st37{fill:none;stroke:url(#SVGID_00000079484505478770986730000017063443132917027767_);stroke-width:20;stroke-miterlimit:10;}
	.st38{fill:url(#SVGID_00000016048961407943625100000004380031547083411110_);}
	.st39{fill:url(#SVGID_00000004534815573013455070000011801355114984420248_);}
	.st40{fill:url(#SVGID_00000075133499283091719160000007429149878389019798_);}
	.st41{fill:url(#SVGID_00000022520369750875814380000003942670023160597663_);}
	.st42{fill:url(#SVGID_00000069385124591384496640000010848910233470219193_);}
	.st43{fill:url(#SVGID_00000044138716029556161120000005583256784919978394_);}
	.st44{fill:url(#SVGID_00000044885674447245988190000003953406160198121903_);}
	.st45{fill:url(#SVGID_00000135679942148466704980000001402341889316822944_);}
	.st46{fill:url(#SVGID_00000170267658353558345440000015213635363672196751_);}
	.st47{fill:url(#SVGID_00000158010600163206147830000013355641676207687325_);}
	.st48{fill:url(#SVGID_00000026147427141972288100000012835811038696602265_);}
	.st49{fill:url(#SVGID_00000134224551919376597750000010716977564532930993_);}
	.st50{fill:url(#SVGID_00000109746580108670999330000007359264573588989863_);}
	.st51{fill:url(#SVGID_00000142868032150369955650000001253076234018505867_);}
	.st52{fill:url(#SVGID_00000145744507843932243240000013523684852591617434_);}
	.st53{fill:url(#SVGID_00000152980027893219318530000003965739629013471628_);}
	.st54{fill:url(#SVGID_00000033361535726689451880000005747362306823159937_);}
</style>
<g>
	<g>
		<polygon points="303.6,11.5 68.8,11.5 68.8,11.5 47.3,11.5 11.9,56.6 11.9,56.6 47.3,101.6 282.1,101.6 303.6,101.6 339,56.6 
			339,56.6 		"/>
	</g>
</g>
<linearGradient id="SVGID_1_" gradientUnits="userSpaceOnUse" x1="-2.512845e-05" y1="46.5696" x2="327.0625" y2="46.5696">
	<stop  offset="0" style="stop-color:#FFDF99"/>
	<stop  offset="0.5336" style="stop-color:#FFB694"/>
	<stop  offset="1" style="stop-color:#FF9690"/>
</linearGradient>
<polygon class="st1" points="322.6,40.9 318.1,35.2 313.6,29.5 309.1,23.7 304.7,18 300.2,12.3 295.7,6.6 291.7,1.5 291.2,1.5 
	286.7,1.5 282.3,1.5 277.8,1.5 273.3,1.5 268.8,1.5 264.3,1.5 259.9,1.5 255.4,1.5 250.9,1.5 246.4,1.5 241.9,1.5 237.5,1.5 
	233,1.5 228.5,1.5 224,1.5 219.5,1.5 215.1,1.5 210.6,1.5 206.1,1.5 201.6,1.5 197.1,1.5 192.7,1.5 188.2,1.5 183.7,1.5 179.2,1.5 
	174.7,1.5 170.3,1.5 165.8,1.5 161.3,1.5 156.8,1.5 152.3,1.5 147.9,1.5 143.4,1.5 138.9,1.5 134.4,1.5 129.9,1.5 125.4,1.5 
	121,1.5 116.5,1.5 112,1.5 107.5,1.5 103,1.5 98.6,1.5 94.1,1.5 89.6,1.5 85.1,1.5 80.6,1.5 76.2,1.5 71.7,1.5 67.2,1.5 62.7,1.5 
	58.2,1.5 56.9,1.5 56.9,1.5 53.8,1.5 49.3,1.5 44.8,1.5 40.3,1.5 35.8,1.5 35.4,1.5 31.4,6.6 26.9,12.3 22.4,18 17.9,23.7 
	13.4,29.5 9,35.2 4.5,40.9 0,46.6 0,46.6 4.5,52.3 9,58 13.4,63.7 17.9,69.4 22.4,75.1 26.9,80.8 31.4,86.5 35.4,91.6 35.8,91.6 
	40.3,91.6 44.8,91.6 49.3,91.6 53.8,91.6 58.2,91.6 62.7,91.6 67.2,91.6 71.7,91.6 76.2,91.6 80.6,91.6 85.1,91.6 89.6,91.6 
	94.1,91.6 98.6,91.6 103,91.6 107.5,91.6 112,91.6 116.5,91.6 121,91.6 125.4,91.6 129.9,91.6 134.4,91.6 138.9,91.6 143.4,91.6 
	147.9,91.6 152.3,91.6 156.8,91.6 161.3,91.6 165.8,91.6 170.3,91.6 174.7,91.6 179.2,91.6 183.7,91.6 188.2,91.6 192.7,91.6 
	197.1,91.6 201.6,91.6 206.1,91.6 210.6,91.6 215.1,91.6 219.5,91.6 224,91.6 228.5,91.6 233,91.6 237.5,91.6 241.9,91.6 
	246.4,91.6 250.9,91.6 255.4,91.6 259.9,91.6 264.3,91.6 268.8,91.6 270.2,91.6 273.3,91.6 277.8,91.6 282.3,91.6 286.7,91.6 
	291.2,91.6 291.7,91.6 295.7,86.5 300.2,80.8 304.7,75.1 309.1,69.4 313.6,63.7 318.1,58 322.6,52.3 327.1,46.6 "/>
<g>
	<path d="M294.3,93.1H36.6L0,46.6L36.6,0h257.7l36.6,46.6L294.3,93.1z M38,90.1h254.8l34.2-43.6L292.9,3H38L3.8,46.6L38,90.1z"/>
</g>
<g>
	<path d="M110.1,37.1c-0.9,7.9-2.3,14.7-4.6,20.4c2.1,4.1,4.9,7.4,8.5,9.6c-1.2,0.9-2.8,3-3.6,4.4c-3.2-2.2-5.7-5-7.8-8.5
		c-2.4,3.8-5.6,7-9.7,9.6c-0.4-0.9-1.5-2.6-2.4-3.9l-3.5,3c-1.8-1.2-4.3-2.5-7-3.7c-3.6,1.6-8.4,3-15.1,4c-0.4-1.2-1.5-3.1-2.3-4.1
		C67.3,67,71,66.2,74,65.3c-2.4-1-4.9-1.8-7.2-2.5c0.8-0.9,1.6-1.9,2.4-3.1l-4.9,0.3l-0.5-4.3c2.4-0.1,5.2-0.2,8.3-0.4
		c0.7-1.1,1.4-2.3,1.9-3.3h-7.9v-9.8h9.7v-1.5h-8.2V35h-4.1v-4.5h4.1V25h8.2v-3.3h4.9V25h8.7v5.5H93V35h-3.7v5.7h-8.7v1.5h9.9v3.9
		c3.6-5.8,5.3-15,6.3-24.2l5.4,0.7c-0.4,3-0.8,6-1.4,9h12.8v5.6H110.1z M71.3,48h4.4v-2h-4.4V48z M72.8,29v1.7h2.9V29H72.8z
		 M75.7,36.6v-1.9h-2.9v1.9H75.7z M74.3,60.8c1.8,0.6,3.6,1.2,5.4,1.9c2-1.2,3.1-2.5,3.8-3.8l-8.2,0.4L74.3,60.8z M89,58.6
		c-0.5,2.2-1.7,4.3-4.1,6.4c1.9,0.9,3.7,1.7,5.2,2.5c4.3-2.5,7.5-5.9,9.6-10.3c-1.2-3.2-2.3-6.9-3.2-10.7c-0.6,1.4-1.3,2.8-2.1,3.9
		c-0.8-1-2.8-3-3.9-3.9v5.6H79.7c-0.5,1-1.1,2.1-1.7,3.1l6.3-0.3v-1.9h5v1.7l1.7-0.1l-0.1,4L89,58.6z M80.6,29v1.7h3.1V29H80.6z
		 M83.7,36.6v-1.9h-3.1v1.9H83.7z M80.6,46v2h4.3v-2H80.6z M99.6,37.1c0.6,4.6,1.6,9,2.8,13c1.1-3.8,1.8-8.2,2.3-13H99.6z"/>
	<path d="M135.6,23.8c-1.4,3.7-3.1,7.4-5,10.9v37.4h-6.5V44.8c-1.1,1.4-2.3,2.8-3.4,4c-0.6-1.6-2.4-5.1-3.5-6.7
		c4.9-4.9,9.6-12.5,12.3-20.2L135.6,23.8z M167,63.8V70h-33.9v-6.2h18.8c1.8-7,3.7-17.5,4.4-25.3l6.7,1c-1.4,8.1-3.3,17.5-5.2,24.2
		H167z M147.7,30.8c-0.4-2.3-1.5-5.8-2.4-8.3l6.1-1.5c1.1,2.6,2.2,6,2.8,8.2l-5.7,1.6h16.6V37h-30.1v-6.2H147.7z M141.5,62.3
		c-0.4-5.6-1.7-15.1-3.2-22.3l5.8-1.3c1.6,7.1,3.1,16.4,3.7,21.8L141.5,62.3z"/>
	<path d="M191.5,35.7c-1.6,2.8-3.6,5.5-5.7,8.2v28.4h-6.4V51c-1.6,1.5-3.1,2.9-4.6,4.1c-0.9-1.3-3.1-4.2-4.4-5.5
		c5.6-3.8,11.5-10.1,15.1-16.3L191.5,35.7z M189.5,24.2c-3.9,5.1-9.7,10.7-14.8,14.3c-0.9-1.4-2.5-3.9-3.6-5.2
		c4.5-2.9,9.7-7.7,12.2-11.5L189.5,24.2z M221.2,45.7h-7.4v19c0,3.5-0.7,5.2-3.1,6.1c-2.3,1-5.8,1.1-10.4,1.1
		c-0.3-1.9-1.1-4.6-2-6.4c3,0.1,6.6,0.1,7.7,0.1c1,0,1.3-0.2,1.3-1V45.7h-15.9v-6.1h29.9V45.7z M219.9,30.9h-26.2v-6.1h26.2V30.9z"
		/>
	<path d="M245.7,66.1c-6.7,1.6-13.7,3.1-19.1,4.4l-1.3-5.8c2.2-0.3,5.1-0.8,8.3-1.2V49.9H226v-5.5h7.5v-3.9h-4.2v-1.3
		c-0.6,0.6-1.2,1.2-1.9,1.7c-0.4-1.5-1.9-5-2.8-6.6c3.8-3.1,7.7-7.9,9.9-13l5.6,1.9c-0.3,0.6-0.5,1.2-0.9,1.8c3,2.4,6.5,5.3,8.4,7.2
		l-3.6,5c-0.4-0.4-0.8-0.9-1.2-1.4v4.5h-3.7v3.9h5.9v5.5h-5.9v12.7l6.4-1.1L245.7,66.1z M230.4,51.9c0.9,2.9,1.7,6.8,2.1,9.2
		l-4.4,1.2c-0.3-2.6-1.1-6.4-1.8-9.3L230.4,51.9z M242,35.1c-1.6-1.6-3.6-3.3-5.5-5c-1.1,1.8-2.3,3.4-3.6,5H242z M239.6,60.4
		c0.8-2.4,1.7-6.3,2-9.1l4.9,1.2c-1.1,3.1-2.2,6.7-3.1,9L239.6,60.4z M273.7,65.2c0,3-0.5,4.7-2.5,5.7c-1.9,1-4.8,1-8.7,1
		c-0.2-1.7-1-4.3-1.8-5.9c2.5,0.2,5.1,0.2,5.9,0.1c0.8,0,1.1-0.3,1.1-1v-6.7c-4.6,1.2-9.2,2.4-13,3.3l-1.4-3.7
		c-0.3,5.1-1.1,10.7-3.3,14.5c-1.1-1.1-3.7-2.9-5.1-3.6c2.4-4.4,2.6-10.5,2.6-15.6V36.7h10v-15h6.2v15h10V65.2z M250.6,35.7
		c-0.6-2.6-2.6-6.9-4.6-10l5.1-2.4c2.2,3,4.3,6.9,5,9.7L250.6,35.7z M253.5,53.4c0,0.9,0,1.9-0.1,2.9c3.8-0.8,9.1-1.9,14.3-3.1V42.3
		h-14.3V53.4z M256.1,44.5c3.7,0.8,8.5,2.4,11,3.9l-2.8,4.3c-2.4-1.5-7.1-3.3-10.9-4.4L256.1,44.5z M275.5,25
		c-1.7,3.7-3.6,7.6-5.1,10.2l-5.4-1.9c1.5-2.8,3.5-7.1,4.5-10.3L275.5,25z"/>
</g>
</svg>
