<?xml version="1.0" encoding="utf-8"?>
<!-- Generator: Adobe Illustrator 26.0.1, SVG Export Plug-In . SVG Version: 6.00 Build 0)  -->
<svg version="1.1" id="圖層_1" xmlns="http://www.w3.org/2000/svg" xmlns:xlink="http://www.w3.org/1999/xlink" x="0px" y="0px"
	 viewBox="0 0 339 101.6" style="enable-background:new 0 0 339 101.6;" xml:space="preserve">
<style type="text/css">
	.st0{fill:#93A5D8;fill-opacity:0.7;}
	.st1{fill:url(#SVGID_1_);}
	.st2{fill:url(#SVGID_00000046328279692977084370000014905460226518116282_);}
	.st3{fill:url(#SVGID_00000079482188147478812850000002606994431963355552_);}
	.st4{fill:url(#SVGID_00000067204909781423306060000014360778566194879149_);}
	.st5{fill:url(#SVGID_00000167393442742112659710000009273090915878890411_);}
	.st6{fill:url(#SVGID_00000179633317084506151580000008258548437515065236_);}
	.st7{fill:#1C1F2A;}
	.st8{fill:none;stroke:url(#SVGID_00000019666461367738919680000016026568295293867649_);stroke-width:20;stroke-miterlimit:10;}
	.st9{fill:url(#SVGID_00000101061924899249660620000010951943166516695936_);}
	.st10{fill:url(#SVGID_00000057106715940634480660000002279877815701576639_);}
	.st11{clip-path:url(#SVGID_00000059279022809882610000000013347948180854948488_);fill:#F2F2F2;}
	.st12{clip-path:url(#SVGID_00000059279022809882610000000013347948180854948488_);}
	.st13{fill:none;stroke:url(#SVGID_00000176031276603789736780000004312239091079995017_);stroke-width:20;stroke-miterlimit:10;}
	.st14{fill:url(#SVGID_00000133502674121565251490000018155508351599073194_);}
	.st15{fill:url(#SVGID_00000163779397063593986190000014427282300309782707_);}
	.st16{clip-path:url(#SVGID_00000004517091122209861510000004933591067862303151_);fill:#F2F2F2;}
	.st17{clip-path:url(#SVGID_00000004517091122209861510000004933591067862303151_);}
	.st18{fill:none;stroke:url(#SVGID_00000087377046830733050050000016176376190958165922_);stroke-width:20;stroke-miterlimit:10;}
	.st19{fill:url(#SVGID_00000183229914625714707930000012841628707411362212_);}
	.st20{fill:url(#SVGID_00000127730528298369943310000004050092189443735691_);}
	.st21{clip-path:url(#SVGID_00000158749122310483493130000017588437797851756726_);fill:#F2F2F2;}
	.st22{clip-path:url(#SVGID_00000158749122310483493130000017588437797851756726_);}
	.st23{fill:none;stroke:url(#SVGID_00000163751949863432427630000001204655595990399151_);stroke-width:20;stroke-miterlimit:10;}
	.st24{fill:url(#SVGID_00000123428484285013560480000016307376556437133212_);}
	.st25{fill:url(#SVGID_00000148634870956933994890000005543032308741590687_);}
	.st26{clip-path:url(#SVGID_00000159454453265240268960000012404546986148435381_);fill:#F2F2F2;}
	.st27{clip-path:url(#SVGID_00000159454453265240268960000012404546986148435381_);}
	.st28{fill:none;stroke:url(#SVGID_00000129905829430074549350000000481493629289484934_);stroke-width:20;stroke-miterlimit:10;}
	.st29{fill:url(#SVGID_00000134237307219804779050000003897600612784742787_);}
	.st30{fill:url(#SVGID_00000110446228588741068590000016144965993147456930_);}
	.st31{fill:none;stroke:url(#SVGID_00000098941695362173693790000015049773722582672794_);stroke-width:20;stroke-miterlimit:10;}
	.st32{fill:url(#SVGID_00000098919384024858284620000011016736359081738649_);}
	.st33{fill:url(#SVGID_00000022521215100282840500000011041301178347790223_);}
	.st34{fill:url(#SVGID_00000183934832277889576330000002118295411888892297_);}
	.st35{fill:url(#SVGID_00000003064672906847542200000000337678957254938786_);}
	.st36{fill:url(#SVGID_00000110466997296288138020000017618032473514799266_);}
	.st37{fill:url(#SVGID_00000047028614313385598000000005352977217696631446_);}
	.st38{fill:url(#SVGID_00000141414711979014383590000015051760097227410063_);}
	.st39{fill:url(#SVGID_00000026140282369407161400000010314335088316602273_);}
	.st40{fill:url(#SVGID_00000137122604572066631110000000845570525515764385_);}
	.st41{fill:url(#SVGID_00000052827154689401876950000002250817802195395505_);}
	.st42{fill:none;stroke:url(#SVGID_00000018945566617153233890000016019136206891520901_);stroke-width:20;stroke-miterlimit:10;}
	.st43{fill:url(#SVGID_00000006696859748992346230000017877115060964755329_);}
	.st44{fill:url(#SVGID_00000020400803022155398140000016871331788256503978_);}
	.st45{fill:url(#SVGID_00000093862960707328082000000013173279886375527578_);}
	.st46{fill:url(#SVGID_00000091730464056541920970000016131226191679194556_);}
	.st47{fill:url(#SVGID_00000004518206214925896040000014104103891764272830_);}
	.st48{fill:#4C2E93;}
</style>
<g>
	<g>
		<polygon points="303.6,11.5 68.8,11.5 68.8,11.5 47.3,11.5 11.9,56.6 11.9,56.6 47.3,101.6 282.1,101.6 303.6,101.6 339,56.6 
			339,56.6 		"/>
	</g>
</g>
<linearGradient id="SVGID_1_" gradientUnits="userSpaceOnUse" x1="-2.512845e-05" y1="46.5696" x2="327.0625" y2="46.5696">
	<stop  offset="0" style="stop-color:#FFDF99"/>
	<stop  offset="0.5336" style="stop-color:#FFB694"/>
	<stop  offset="1" style="stop-color:#FF9690"/>
</linearGradient>
<polygon class="st1" points="322.6,40.9 318.1,35.2 313.6,29.5 309.1,23.7 304.7,18 300.2,12.3 295.7,6.6 291.7,1.5 291.2,1.5 
	286.7,1.5 282.3,1.5 277.8,1.5 273.3,1.5 268.8,1.5 264.3,1.5 259.9,1.5 255.4,1.5 250.9,1.5 246.4,1.5 241.9,1.5 237.5,1.5 
	233,1.5 228.5,1.5 224,1.5 219.5,1.5 215.1,1.5 210.6,1.5 206.1,1.5 201.6,1.5 197.1,1.5 192.7,1.5 188.2,1.5 183.7,1.5 179.2,1.5 
	174.7,1.5 170.3,1.5 165.8,1.5 161.3,1.5 156.8,1.5 152.3,1.5 147.9,1.5 143.4,1.5 138.9,1.5 134.4,1.5 129.9,1.5 125.4,1.5 
	121,1.5 116.5,1.5 112,1.5 107.5,1.5 103,1.5 98.6,1.5 94.1,1.5 89.6,1.5 85.1,1.5 80.6,1.5 76.2,1.5 71.7,1.5 67.2,1.5 62.7,1.5 
	58.2,1.5 56.9,1.5 56.9,1.5 53.8,1.5 49.3,1.5 44.8,1.5 40.3,1.5 35.8,1.5 35.4,1.5 31.4,6.6 26.9,12.3 22.4,18 17.9,23.7 
	13.4,29.5 9,35.2 4.5,40.9 0,46.6 0,46.6 4.5,52.3 9,58 13.4,63.7 17.9,69.4 22.4,75.1 26.9,80.8 31.4,86.5 35.4,91.6 35.8,91.6 
	40.3,91.6 44.8,91.6 49.3,91.6 53.8,91.6 58.2,91.6 62.7,91.6 67.2,91.6 71.7,91.6 76.2,91.6 80.6,91.6 85.1,91.6 89.6,91.6 
	94.1,91.6 98.6,91.6 103,91.6 107.5,91.6 112,91.6 116.5,91.6 121,91.6 125.4,91.6 129.9,91.6 134.4,91.6 138.9,91.6 143.4,91.6 
	147.9,91.6 152.3,91.6 156.8,91.6 161.3,91.6 165.8,91.6 170.3,91.6 174.7,91.6 179.2,91.6 183.7,91.6 188.2,91.6 192.7,91.6 
	197.1,91.6 201.6,91.6 206.1,91.6 210.6,91.6 215.1,91.6 219.5,91.6 224,91.6 228.5,91.6 233,91.6 237.5,91.6 241.9,91.6 
	246.4,91.6 250.9,91.6 255.4,91.6 259.9,91.6 264.3,91.6 268.8,91.6 270.2,91.6 273.3,91.6 277.8,91.6 282.3,91.6 286.7,91.6 
	291.2,91.6 291.7,91.6 295.7,86.5 300.2,80.8 304.7,75.1 309.1,69.4 313.6,63.7 318.1,58 322.6,52.3 327.1,46.6 "/>
<g>
	<path d="M294.3,93.1H36.6L0,46.6L36.6,0h257.7l36.6,46.6L294.3,93.1z M38,90.1h254.8l34.2-43.6L292.9,3H38L3.8,46.6L38,90.1z"/>
</g>
<g>
	<path d="M135.9,59.8l4.9,3.9c-4.6,2.7-11.7,5.5-17.1,7.2c-0.9-1.3-2.6-3.4-4-4.5c5.3-1.4,12.1-4.2,15.7-6.5h-15.1v-5.6h8.7V33.5
		h-7.2v-5.6h7.2v-5h6.1v5h16.3v-5h6.2v5h7.5v5.6h-7.5v20.7h8.8v5.6H135.9z M135.1,33.5v3.2h16.3v-3.2H135.1z M135.1,45.2h16.3v-3.5
		h-16.3V45.2z M135.1,54.1h16.3v-3.8h-16.3V54.1z M150.4,60.1c5.8,2,12.5,4.7,16.4,6.7l-5.9,3.9c-3.3-2-9.2-4.7-14.9-6.8L150.4,60.1
		z"/>
	<path d="M187.6,24.7c-1.4,3.7-3.1,7.4-5.1,11v35.1h-5.9v-26c-1.1,1.4-2.2,2.6-3.2,3.8c-0.6-1.5-2.3-4.9-3.4-6.4
		c4.7-4.6,9.2-11.9,11.8-19.3L187.6,24.7z M209.9,64.9c3,0,3.6-1.3,4-7.1c1.4,0.9,3.8,1.9,5.4,2.3c-0.8,7.7-2.6,10.3-8.9,10.3h-11.7
		c-7.2,0-9.2-1.9-9.2-9V46.9l-3.9,1.5l-2.3-5.4l6.2-2.4V28.4h5.8v9.9l5.2-2V22.9h5.5v11.2l6.9-2.7l0.5-0.4l4.6,1.4l-0.2,1
		c-0.3,7.4-0.9,17.1-2.1,23.5l-5.1-1.4c0.6-4.3,0.9-11.1,1.1-17.4l-5.8,2.4v18.3h-5.5V42.5l-5.2,2.1v16.7c0,3,0.5,3.6,3.9,3.6H209.9
		z"/>
</g>
</svg>
