<?xml version="1.0" encoding="utf-8"?>
<!-- Generator: Adobe Illustrator 26.0.1, SVG Export Plug-In . SVG Version: 6.00 Build 0)  -->
<svg version="1.1" id="圖層_1" xmlns="http://www.w3.org/2000/svg" xmlns:xlink="http://www.w3.org/1999/xlink" x="0px" y="0px"
	 viewBox="0 0 448 512" style="enable-background:new 0 0 448 512;" xml:space="preserve">
<style type="text/css">
	.st0{fill:url(#SVGID_1_);}
</style>
<linearGradient id="SVGID_1_" gradientUnits="userSpaceOnUse" x1="0" y1="256" x2="448" y2="256">
	<stop  offset="0" style="stop-color:#0089D1"/>
	<stop  offset="0.9944" style="stop-color:#00B8B0"/>
</linearGradient>
<path class="st0" d="M64,32C28.7,32,0,60.7,0,96v320c0,35.3,28.7,64,64,64h320c35.3,0,64-28.7,64-64V96c0-35.3-28.7-64-64-64H64z
	 M337,209L209,337c-9.4,9.4-24.6,9.4-33.9,0l-64-64c-9.4-9.4-9.4-24.6,0-33.9s24.6-9.4,33.9,0l47,47L303,175
	c9.4-9.4,24.6-9.4,33.9,0s9.4,24.6,0,33.9L337,209z"/>
</svg>
