<?xml version="1.0" encoding="utf-8"?>
<!-- Generator: Adobe Illustrator 26.0.1, SVG Export Plug-In . SVG Version: 6.00 Build 0)  -->
<svg version="1.1" id="圖層_1" xmlns="http://www.w3.org/2000/svg" xmlns:xlink="http://www.w3.org/1999/xlink" x="0px" y="0px"
	 viewBox="0 0 339 101.6" style="enable-background:new 0 0 339 101.6;" xml:space="preserve">
<style type="text/css">
	.st0{fill:#93A5D8;fill-opacity:0.7;}
	.st1{fill:url(#SVGID_1_);}
	.st2{fill:url(#SVGID_00000033352555346719596580000013736359311249842050_);}
	.st3{fill:url(#SVGID_00000070092918783585130800000017753208056296564899_);}
	.st4{fill:url(#SVGID_00000169548529256116946720000017482975744742942368_);}
	.st5{fill:url(#SVGID_00000032613216283903932740000010672093156576090272_);}
	.st6{fill:url(#SVGID_00000155836841986228403550000001211644215527382969_);}
	.st7{fill:#1C1F2A;}
	.st8{fill:none;stroke:url(#SVGID_00000157308686011206386040000015885901002790964901_);stroke-width:20;stroke-miterlimit:10;}
	.st9{fill:url(#SVGID_00000103250645257471626050000008944369946292818073_);}
	.st10{fill:url(#SVGID_00000132792503231618654560000002043371505668479139_);}
	.st11{clip-path:url(#SVGID_00000104667627337597511930000009692553846548142487_);fill:#F2F2F2;}
	.st12{clip-path:url(#SVGID_00000104667627337597511930000009692553846548142487_);}
	.st13{fill:none;stroke:url(#SVGID_00000172418641806693381120000000326431558782481339_);stroke-width:20;stroke-miterlimit:10;}
	.st14{fill:url(#SVGID_00000147920816899922593860000014082170849324855210_);}
	.st15{fill:url(#SVGID_00000062164045556605399500000006065927345751606194_);}
	.st16{clip-path:url(#SVGID_00000015353843397331635920000003963342829204868994_);fill:#F2F2F2;}
	.st17{clip-path:url(#SVGID_00000015353843397331635920000003963342829204868994_);}
	.st18{fill:none;stroke:url(#SVGID_00000101085792031209988140000003507971420056930201_);stroke-width:20;stroke-miterlimit:10;}
	.st19{fill:url(#SVGID_00000023967171207642561550000018442712823002595496_);}
	.st20{fill:url(#SVGID_00000038390233898102827470000011789411042568481933_);}
	.st21{clip-path:url(#SVGID_00000009566593582173919920000013212435875377294976_);fill:#F2F2F2;}
	.st22{clip-path:url(#SVGID_00000009566593582173919920000013212435875377294976_);}
	.st23{fill:none;stroke:url(#SVGID_00000152247862148328715390000001663795236809236643_);stroke-width:20;stroke-miterlimit:10;}
	.st24{fill:url(#SVGID_00000042698925048630121260000011461157929917176974_);}
	.st25{fill:url(#SVGID_00000173845107726650116240000002760516724702496667_);}
	.st26{clip-path:url(#SVGID_00000006688080198758762260000012386099057121735323_);fill:#F2F2F2;}
	.st27{clip-path:url(#SVGID_00000006688080198758762260000012386099057121735323_);}
	.st28{fill:none;stroke:url(#SVGID_00000072238947283362717450000017289500057331282593_);stroke-width:20;stroke-miterlimit:10;}
	.st29{fill:url(#SVGID_00000078006086285150646620000015901356822973816767_);}
	.st30{fill:url(#SVGID_00000109748135141509573580000011267994885955266473_);}
	.st31{fill:none;stroke:url(#SVGID_00000040560355809224901510000009017616402370127294_);stroke-width:20;stroke-miterlimit:10;}
	.st32{fill:url(#SVGID_00000177476570736513785660000013272434891492769187_);}
	.st33{fill:url(#SVGID_00000169551644480201092290000011640137782988176004_);}
	.st34{fill:url(#SVGID_00000080191929665746136800000008008098124025718188_);}
	.st35{fill:url(#SVGID_00000123412366335041652570000003547151778488366526_);}
	.st36{fill:url(#SVGID_00000005225811928102935640000000163533666582206613_);}
	.st37{fill:url(#SVGID_00000071558670265569639250000011369937104450031032_);}
	.st38{fill:none;stroke:url(#SVGID_00000070109480606092309940000001909982338011306881_);stroke-width:20;stroke-miterlimit:10;}
	.st39{fill:url(#SVGID_00000160897945179293460540000013522501641649528474_);}
	.st40{fill:url(#SVGID_00000028326731728776502250000003297117355487573392_);}
	.st41{fill:url(#SVGID_00000096742889170388147060000002921138043323145398_);}
	.st42{fill:url(#SVGID_00000066512249104016882390000016215401456956309667_);}
	.st43{fill:url(#SVGID_00000044864678935467207300000006020707885209886385_);}
	.st44{fill:url(#SVGID_00000171681367691808708420000009061269828451817353_);}
	.st45{fill:none;stroke:url(#SVGID_00000047769116609506213640000010901246673347526290_);stroke-width:20;stroke-miterlimit:10;}
	.st46{fill:url(#SVGID_00000005240874393863453910000000286047601938274709_);}
	.st47{fill:url(#SVGID_00000021835479848253637150000003689119391482938263_);}
	.st48{fill:url(#SVGID_00000018920572473549486450000008311411355224850357_);}
	.st49{fill:url(#SVGID_00000088812809131427138190000017473349563947210668_);}
	.st50{fill:url(#SVGID_00000007422800184824034040000013922083340821333389_);}
	.st51{fill:url(#SVGID_00000020379646072594289340000000077228108122877361_);}
	.st52{fill:url(#SVGID_00000179630296970333274280000008849994602241132475_);}
	.st53{fill:url(#SVGID_00000144339621840109550020000015351982530737331856_);}
	.st54{fill:url(#SVGID_00000172411142491818023370000013046952670913975693_);}
</style>
<g>
	<g>
		<polygon points="303.6,11.5 68.8,11.5 68.8,11.5 47.3,11.5 11.9,56.6 11.9,56.6 47.3,101.6 282.1,101.6 303.6,101.6 339,56.6 
			339,56.6 		"/>
	</g>
</g>
<linearGradient id="SVGID_1_" gradientUnits="userSpaceOnUse" x1="-2.512845e-05" y1="46.5696" x2="327.0625" y2="46.5696">
	<stop  offset="0" style="stop-color:#FFDF99"/>
	<stop  offset="0.5336" style="stop-color:#FFB694"/>
	<stop  offset="1" style="stop-color:#FF9690"/>
</linearGradient>
<polygon class="st1" points="322.6,40.9 318.1,35.2 313.6,29.5 309.1,23.7 304.7,18 300.2,12.3 295.7,6.6 291.7,1.5 291.2,1.5 
	286.7,1.5 282.3,1.5 277.8,1.5 273.3,1.5 268.8,1.5 264.3,1.5 259.9,1.5 255.4,1.5 250.9,1.5 246.4,1.5 241.9,1.5 237.5,1.5 
	233,1.5 228.5,1.5 224,1.5 219.5,1.5 215.1,1.5 210.6,1.5 206.1,1.5 201.6,1.5 197.1,1.5 192.7,1.5 188.2,1.5 183.7,1.5 179.2,1.5 
	174.7,1.5 170.3,1.5 165.8,1.5 161.3,1.5 156.8,1.5 152.3,1.5 147.9,1.5 143.4,1.5 138.9,1.5 134.4,1.5 129.9,1.5 125.4,1.5 
	121,1.5 116.5,1.5 112,1.5 107.5,1.5 103,1.5 98.6,1.5 94.1,1.5 89.6,1.5 85.1,1.5 80.6,1.5 76.2,1.5 71.7,1.5 67.2,1.5 62.7,1.5 
	58.2,1.5 56.9,1.5 56.9,1.5 53.8,1.5 49.3,1.5 44.8,1.5 40.3,1.5 35.8,1.5 35.4,1.5 31.4,6.6 26.9,12.3 22.4,18 17.9,23.7 
	13.4,29.5 9,35.2 4.5,40.9 0,46.6 0,46.6 4.5,52.3 9,58 13.4,63.7 17.9,69.4 22.4,75.1 26.9,80.8 31.4,86.5 35.4,91.6 35.8,91.6 
	40.3,91.6 44.8,91.6 49.3,91.6 53.8,91.6 58.2,91.6 62.7,91.6 67.2,91.6 71.7,91.6 76.2,91.6 80.6,91.6 85.1,91.6 89.6,91.6 
	94.1,91.6 98.6,91.6 103,91.6 107.5,91.6 112,91.6 116.5,91.6 121,91.6 125.4,91.6 129.9,91.6 134.4,91.6 138.9,91.6 143.4,91.6 
	147.9,91.6 152.3,91.6 156.8,91.6 161.3,91.6 165.8,91.6 170.3,91.6 174.7,91.6 179.2,91.6 183.7,91.6 188.2,91.6 192.7,91.6 
	197.1,91.6 201.6,91.6 206.1,91.6 210.6,91.6 215.1,91.6 219.5,91.6 224,91.6 228.5,91.6 233,91.6 237.5,91.6 241.9,91.6 
	246.4,91.6 250.9,91.6 255.4,91.6 259.9,91.6 264.3,91.6 268.8,91.6 270.2,91.6 273.3,91.6 277.8,91.6 282.3,91.6 286.7,91.6 
	291.2,91.6 291.7,91.6 295.7,86.5 300.2,80.8 304.7,75.1 309.1,69.4 313.6,63.7 318.1,58 322.6,52.3 327.1,46.6 "/>
<g>
	<path d="M294.3,93.1H36.6L0,46.6L36.6,0h257.7l36.6,46.6L294.3,93.1z M38,90.1h254.8l34.2-43.6L292.9,3H38L3.8,46.6L38,90.1z"/>
</g>
<g>
	<g>
		<path d="M143.5,50.1V26.6h8.6v24.3c0,8.9,3.1,11.9,8.1,11.9c5.1,0,8.3-3,8.3-11.9V26.6h8.2v23.5c0,14.2-6.1,20.1-16.5,20.1
			C149.7,70.2,143.5,64.4,143.5,50.1z"/>
		<path d="M187,26.6h8.6v42.8H187V26.6z"/>
	</g>
</g>
</svg>
