<?xml version="1.0" encoding="utf-8"?>
<!-- Generator: Adobe Illustrator 26.0.1, SVG Export Plug-In . SVG Version: 6.00 Build 0)  -->
<svg version="1.1" id="圖層_1" xmlns="http://www.w3.org/2000/svg" xmlns:xlink="http://www.w3.org/1999/xlink" x="0px" y="0px"
	 viewBox="0 0 339 101.6" style="enable-background:new 0 0 339 101.6;" xml:space="preserve">
<style type="text/css">
	.st0{fill:#93A5D8;fill-opacity:0.7;}
	.st1{fill:#667CAD;fill-opacity:0.7;}
	.st2{fill:url(#SVGID_1_);}
	.st3{fill:url(#SVGID_00000096752668977679630630000008343154130316085181_);}
	.st4{fill:url(#SVGID_00000131341171030515153280000003047725449572677507_);}
	.st5{fill:url(#SVGID_00000025408499885353109270000003933049881406803602_);}
	.st6{fill:url(#SVGID_00000024703322326976665950000000449795801395170230_);}
	.st7{fill:url(#SVGID_00000030454162590604002330000005822071756564428173_);}
	.st8{fill:#1C1F2A;}
	.st9{fill:none;stroke:url(#SVGID_00000160184690032149947880000003992059563178419127_);stroke-width:20;stroke-miterlimit:10;}
	.st10{fill:url(#SVGID_00000162319964072113826990000005834267026821261985_);}
	.st11{fill:url(#SVGID_00000116936059994009747150000005443202112372550296_);}
	.st12{clip-path:url(#SVGID_00000019658029007863543830000002639292147184307602_);fill:#F2F2F2;}
	.st13{clip-path:url(#SVGID_00000019658029007863543830000002639292147184307602_);}
	.st14{fill:none;stroke:url(#SVGID_00000181793726557890857720000001937953967041785735_);stroke-width:20;stroke-miterlimit:10;}
	.st15{fill:url(#SVGID_00000057116672019376908900000003642870852480655293_);}
	.st16{fill:url(#SVGID_00000101785095870129561100000017022536069040367027_);}
	.st17{clip-path:url(#SVGID_00000010285506874011297430000008598104667430556324_);fill:#F2F2F2;}
	.st18{clip-path:url(#SVGID_00000010285506874011297430000008598104667430556324_);}
	.st19{fill:none;stroke:url(#SVGID_00000160185559145766617850000016729697050531296183_);stroke-width:20;stroke-miterlimit:10;}
	.st20{fill:url(#SVGID_00000095326577322453639450000014447575438990558908_);}
	.st21{fill:url(#SVGID_00000040545154988771393070000015584591472070979502_);}
	.st22{clip-path:url(#SVGID_00000087409573403758464930000003669767778861153973_);fill:#F2F2F2;}
	.st23{clip-path:url(#SVGID_00000087409573403758464930000003669767778861153973_);}
	.st24{fill:none;stroke:url(#SVGID_00000047047059597872976160000006620357093345108407_);stroke-width:20;stroke-miterlimit:10;}
	.st25{fill:url(#SVGID_00000138540984562255923430000015051322703699411607_);}
	.st26{fill:url(#SVGID_00000038383440512936703280000009116810072880891797_);}
	.st27{clip-path:url(#SVGID_00000106857838905158900140000013526355864776043948_);fill:#F2F2F2;}
	.st28{clip-path:url(#SVGID_00000106857838905158900140000013526355864776043948_);}
	.st29{fill:none;stroke:url(#SVGID_00000053541254858762233330000003009721409944044177_);stroke-width:20;stroke-miterlimit:10;}
	.st30{fill:url(#SVGID_00000114767609514903062160000008115077900871627415_);}
	.st31{fill:url(#SVGID_00000036240889237818828290000001922525321367841174_);}
	.st32{fill:none;stroke:url(#SVGID_00000126307287214727469590000012295465070429951134_);stroke-width:20;stroke-miterlimit:10;}
	.st33{fill:url(#SVGID_00000084519290793663588460000008228401078883634099_);}
	.st34{fill:url(#SVGID_00000010311261031711858480000000398950790207188657_);}
	.st35{fill:none;stroke:url(#SVGID_00000088100514968118346370000008871379067592921490_);stroke-width:20;stroke-miterlimit:10;}
	.st36{fill:url(#SVGID_00000039811855437736159650000012714586771941623231_);}
	.st37{fill:url(#SVGID_00000183218261434349997500000003412034346544308403_);}
	.st38{fill:none;stroke:url(#SVGID_00000040543860471794838480000013308507368096779914_);stroke-width:20;stroke-miterlimit:10;}
	.st39{fill:url(#SVGID_00000132078866463487598230000017472080440327664571_);}
	.st40{fill:url(#SVGID_00000108274717228390073360000002511451365004257713_);}
	.st41{fill:url(#SVGID_00000016763969363663574770000012196757068860052905_);}
	.st42{fill:url(#SVGID_00000066494720902938421650000010940436029329265852_);}
	.st43{fill:url(#SVGID_00000155853397843661217160000005959337265911843251_);}
	.st44{fill:url(#SVGID_00000170252546676421682030000012248097488878754951_);}
	.st45{fill:url(#SVGID_00000138574898290932528300000002661603675993677485_);}
	.st46{fill:url(#SVGID_00000038374215278374769620000005315361326097180072_);}
	.st47{fill:url(#SVGID_00000002349605424066935460000016553413774008568709_);}
	.st48{fill:url(#SVGID_00000036935025023063260410000013546711199623372476_);}
	.st49{fill:url(#SVGID_00000170999190656243164770000000102092525320578444_);}
	.st50{fill:url(#SVGID_00000007424859181883967590000009199585063999673015_);}
	.st51{fill:url(#SVGID_00000037692772897209365640000017216162851798593418_);}
	.st52{fill:url(#SVGID_00000004546252556900343280000012523620215603787157_);}
	.st53{fill:url(#SVGID_00000102539721590235594970000010762004331235085974_);}
	.st54{fill:url(#SVGID_00000178195703700488599660000008725435483205453461_);}
	.st55{fill:url(#SVGID_00000121255218599199828150000006081834789948596354_);}
	.st56{fill:#D4D5D7;}
	.st57{fill:#B9B2AA;}
	.st58{fill:#EC433C;}
	.st59{fill:#D8D6D6;}
	.st60{fill:#DBA316;}
	.st61{fill:#DB6533;}
	.st62{fill:#DADADC;}
	.st63{fill:#A6A396;}
	.st64{fill:#C6C5C3;}
	.st65{fill:#F45245;}
	.st66{fill:#C53832;}
	.st67{fill:#066794;}
	.st68{fill:#034E6A;}
	.st69{fill:#09556F;}
	.st70{fill:none;}
</style>
<g>
	<g>
		<polygon points="303.6,11.5 68.8,11.5 68.8,11.5 47.3,11.5 11.9,56.6 11.9,56.6 47.3,101.6 282.1,101.6 303.6,101.6 339,56.6 
			339,56.6 		"/>
	</g>
</g>
<linearGradient id="SVGID_1_" gradientUnits="userSpaceOnUse" x1="-2.512845e-05" y1="46.5696" x2="327.0625" y2="46.5696">
	<stop  offset="0" style="stop-color:#FFDF99"/>
	<stop  offset="0.5336" style="stop-color:#FFB694"/>
	<stop  offset="1" style="stop-color:#FF9690"/>
</linearGradient>
<polygon class="st2" points="322.6,40.9 318.1,35.2 313.6,29.5 309.1,23.7 304.7,18 300.2,12.3 295.7,6.6 291.7,1.5 291.2,1.5 
	286.7,1.5 282.3,1.5 277.8,1.5 273.3,1.5 268.8,1.5 264.3,1.5 259.9,1.5 255.4,1.5 250.9,1.5 246.4,1.5 241.9,1.5 237.5,1.5 
	233,1.5 228.5,1.5 224,1.5 219.5,1.5 215.1,1.5 210.6,1.5 206.1,1.5 201.6,1.5 197.1,1.5 192.7,1.5 188.2,1.5 183.7,1.5 179.2,1.5 
	174.7,1.5 170.3,1.5 165.8,1.5 161.3,1.5 156.8,1.5 152.3,1.5 147.9,1.5 143.4,1.5 138.9,1.5 134.4,1.5 129.9,1.5 125.4,1.5 
	121,1.5 116.5,1.5 112,1.5 107.5,1.5 103,1.5 98.6,1.5 94.1,1.5 89.6,1.5 85.1,1.5 80.6,1.5 76.2,1.5 71.7,1.5 67.2,1.5 62.7,1.5 
	58.2,1.5 56.9,1.5 56.9,1.5 53.8,1.5 49.3,1.5 44.8,1.5 40.3,1.5 35.8,1.5 35.4,1.5 31.4,6.6 26.9,12.3 22.4,18 17.9,23.7 
	13.4,29.5 9,35.2 4.5,40.9 0,46.6 0,46.6 4.5,52.3 9,58 13.4,63.7 17.9,69.4 22.4,75.1 26.9,80.8 31.4,86.5 35.4,91.6 35.8,91.6 
	40.3,91.6 44.8,91.6 49.3,91.6 53.8,91.6 58.2,91.6 62.7,91.6 67.2,91.6 71.7,91.6 76.2,91.6 80.6,91.6 85.1,91.6 89.6,91.6 
	94.1,91.6 98.6,91.6 103,91.6 107.5,91.6 112,91.6 116.5,91.6 121,91.6 125.4,91.6 129.9,91.6 134.4,91.6 138.9,91.6 143.4,91.6 
	147.9,91.6 152.3,91.6 156.8,91.6 161.3,91.6 165.8,91.6 170.3,91.6 174.7,91.6 179.2,91.6 183.7,91.6 188.2,91.6 192.7,91.6 
	197.1,91.6 201.6,91.6 206.1,91.6 210.6,91.6 215.1,91.6 219.5,91.6 224,91.6 228.5,91.6 233,91.6 237.5,91.6 241.9,91.6 
	246.4,91.6 250.9,91.6 255.4,91.6 259.9,91.6 264.3,91.6 268.8,91.6 270.2,91.6 273.3,91.6 277.8,91.6 282.3,91.6 286.7,91.6 
	291.2,91.6 291.7,91.6 295.7,86.5 300.2,80.8 304.7,75.1 309.1,69.4 313.6,63.7 318.1,58 322.6,52.3 327.1,46.6 "/>
<g>
	<path d="M294.3,93.1H36.6L0,46.6L36.6,0h257.7l36.6,46.6L294.3,93.1z M38,90.1h254.8l34.2-43.6L292.9,3H38L3.8,46.6L38,90.1z"/>
</g>
<g>
	<path d="M89.8,49.5v-22h8v22.7c0,8.3,2.9,11.1,7.6,11.1c4.8,0,7.8-2.8,7.8-11.1V27.5h7.7v22c0,13.3-5.7,18.7-15.4,18.7
		C95.6,68.2,89.8,62.7,89.8,49.5z"/>
	<path d="M130.4,27.5h8v40h-8V27.5z"/>
	<path d="M166.5,35.7h-21.1v-5.1h8.9c-0.8-2.1-2.2-4.8-3.5-6.8l5-2.3c1.5,2.2,3.1,5.2,3.9,7.2l-3.6,1.9h10.3V35.7z M164.3,39.4
		c5.3-2.9,5.9-6.6,5.9-10.2v-5.8h18.2v11.8c0,1.6,0.1,2.2,0.8,2.2h2.2c0.8,0,1.9-0.2,2.6-0.4c0.1,1.6,0.3,3.8,0.4,5.3
		c-0.8,0.3-1.9,0.4-3,0.4h-2.8c-5.1,0-6-2.3-6-7.6v-5.8h-6.5v0.1c0,5.2-1.5,11.3-8.3,14.9c-0.6-1-2.3-2.9-3.5-4V43h-16.5v-4.9h16.5
		V39.4z M164.4,50.2h-16.6v-4.9h16.6V50.2z M193.3,46.5c-1.8,6.6-4.8,11.8-8.6,15.7c3.3,1.7,7,3.1,11.2,3.9
		c-1.4,1.3-3.1,4.1-3.9,5.8c-4.8-1.1-8.9-2.9-12.5-5.3c-3.7,2.4-7.9,4.2-12.5,5.5c-0.5-1.3-1.5-3.3-2.5-4.8v1.9h-11.1v2.3h-5.5V52.8
		h16.5v13.3c3.6-0.9,7-2.1,9.9-3.8c-2.8-2.8-5.2-6.2-7.1-10l3.5-1.2h-5v-6h22.5l1.1-0.3L193.3,46.5z M158.8,57.9h-5.5v6h5.5V57.9z
		 M173,51c1.6,2.9,3.7,5.5,6.4,7.7c2.4-2.2,4.3-4.7,5.8-7.7H173z"/>
	<path d="M223.2,35.7h-22.7v-5.1h9.4c-0.8-2.1-2.2-4.8-3.5-6.8l5-2.3c1.5,2.2,3.1,5.2,3.9,7.2l-3.6,1.9h11.4V35.7z M202.9,43v-4.9
		H221V43H202.9z M220.9,50.2h-18v-4.9h18V50.2z M221.1,69.2h-12.6v2.3h-5.4V52.8h18V69.2z M208.5,57.9v6h7v-6H208.5z M249.2,46h-10
		v26.2h-6.7V46H223v-6.3h9.5v-17h6.7v17h10V46z"/>
</g>
</svg>
