<?xml version="1.0" encoding="utf-8"?>
<!-- Generator: Adobe Illustrator 26.0.1, SVG Export Plug-In . SVG Version: 6.00 Build 0)  -->
<svg version="1.1" id="圖層_1" xmlns="http://www.w3.org/2000/svg" xmlns:xlink="http://www.w3.org/1999/xlink" x="0px" y="0px"
	 viewBox="0 0 339 101.6" style="enable-background:new 0 0 339 101.6;" xml:space="preserve">
<style type="text/css">
	.st0{fill:#93A5D8;fill-opacity:0.7;}
	.st1{fill:url(#SVGID_1_);}
	.st2{fill:url(#SVGID_00000049180803032720975860000008952113862493975215_);}
	.st3{fill:url(#SVGID_00000165209827404659563860000003441509622932519314_);}
	.st4{fill:url(#SVGID_00000125590291986445252380000002076213969724185491_);}
	.st5{fill:url(#SVGID_00000085233191207990050030000013671620859122138551_);}
	.st6{fill:url(#SVGID_00000117648575093306812330000006275659542374672048_);}
	.st7{fill:#1C1F2A;}
	.st8{fill:none;stroke:url(#SVGID_00000070819398120725053670000017100389601813577609_);stroke-width:20;stroke-miterlimit:10;}
	.st9{fill:url(#SVGID_00000178170142660125912510000001643860097956897203_);}
	.st10{fill:url(#SVGID_00000086673039167640225410000017880704716316046772_);}
	.st11{clip-path:url(#SVGID_00000165225151856132572210000010494521305515310761_);fill:#F2F2F2;}
	.st12{clip-path:url(#SVGID_00000165225151856132572210000010494521305515310761_);}
	.st13{fill:none;stroke:url(#SVGID_00000131344300626756520520000008852821173773672579_);stroke-width:20;stroke-miterlimit:10;}
	.st14{fill:url(#SVGID_00000173146039304314838640000002679635562536073132_);}
	.st15{fill:url(#SVGID_00000168809696335006178590000002841350583739817658_);}
	.st16{clip-path:url(#SVGID_00000094588430310333120490000013416627622275275448_);fill:#F2F2F2;}
	.st17{clip-path:url(#SVGID_00000094588430310333120490000013416627622275275448_);}
	.st18{fill:none;stroke:url(#SVGID_00000165945268827884179930000007319529138328125612_);stroke-width:20;stroke-miterlimit:10;}
	.st19{fill:url(#SVGID_00000078748259526908793290000004231522494557251222_);}
	.st20{fill:url(#SVGID_00000023978439310989761300000005499439261772274109_);}
	.st21{clip-path:url(#SVGID_00000165231236382182145410000007500406235299274910_);fill:#F2F2F2;}
	.st22{clip-path:url(#SVGID_00000165231236382182145410000007500406235299274910_);}
	.st23{fill:none;stroke:url(#SVGID_00000039103904325304845160000015616296268041245104_);stroke-width:20;stroke-miterlimit:10;}
	.st24{fill:url(#SVGID_00000147219263765975505670000010447940019772189581_);}
	.st25{fill:url(#SVGID_00000013161255533874111100000008400893902896434613_);}
	.st26{clip-path:url(#SVGID_00000063611032261463748900000017579284661996622011_);fill:#F2F2F2;}
	.st27{clip-path:url(#SVGID_00000063611032261463748900000017579284661996622011_);}
	.st28{fill:none;stroke:url(#SVGID_00000183927818950464551240000003598824519858547888_);stroke-width:20;stroke-miterlimit:10;}
	.st29{fill:url(#SVGID_00000177479111231742634960000010086543638816876940_);}
	.st30{fill:url(#SVGID_00000164506633136623048450000011349349436641308862_);}
	.st31{fill:none;stroke:url(#SVGID_00000019669607460773115000000003996595023626379447_);stroke-width:20;stroke-miterlimit:10;}
	.st32{fill:url(#SVGID_00000143584245291359996110000006214660893450162071_);}
	.st33{fill:url(#SVGID_00000158720536355077753600000000821718203940983219_);}
	.st34{fill:url(#SVGID_00000082329155699960330870000016282232474345347732_);}
	.st35{fill:url(#SVGID_00000177467582069389671250000015397652440448568737_);}
	.st36{fill:url(#SVGID_00000041988477312196802280000001985323960707150258_);}
	.st37{fill:url(#SVGID_00000061440083458143703530000013973593877307164316_);}
	.st38{fill:url(#SVGID_00000042000767745956962090000009067323830120433829_);}
	.st39{fill:url(#SVGID_00000093176013606017836390000006669551237612339076_);}
	.st40{fill:url(#SVGID_00000171691825633123001780000001678907053934759316_);}
	.st41{fill:url(#SVGID_00000093139307520628701250000006492700720270452373_);}
	.st42{fill:none;stroke:url(#SVGID_00000099647089802252378810000011632959462808434083_);stroke-width:20;stroke-miterlimit:10;}
	.st43{fill:url(#SVGID_00000035499933652130159420000003140245381862802613_);}
	.st44{fill:url(#SVGID_00000107589021296547160710000011648374201713663630_);}
	.st45{fill:url(#SVGID_00000013175698188617500880000012088004498335271554_);}
	.st46{fill:url(#SVGID_00000054261494319508965650000002261550079238783154_);}
	.st47{fill:url(#SVGID_00000091714255936463435340000001200219785358713728_);}
	.st48{fill:#4C2E93;}
</style>
<g>
	<g>
		<polygon points="303.6,11.5 68.8,11.5 68.8,11.5 47.3,11.5 11.9,56.6 11.9,56.6 47.3,101.6 282.1,101.6 303.6,101.6 339,56.6 
			339,56.6 		"/>
	</g>
</g>
<linearGradient id="SVGID_1_" gradientUnits="userSpaceOnUse" x1="-1.256422e-05" y1="46.5696" x2="327.0626" y2="46.5696">
	<stop  offset="0" style="stop-color:#FFDF99"/>
	<stop  offset="0.5336" style="stop-color:#FFB694"/>
	<stop  offset="1" style="stop-color:#FF9690"/>
</linearGradient>
<polygon class="st1" points="322.6,40.9 318.1,35.2 313.6,29.5 309.1,23.7 304.7,18 300.2,12.3 295.7,6.6 291.7,1.5 291.2,1.5 
	286.7,1.5 282.3,1.5 277.8,1.5 273.3,1.5 268.8,1.5 264.3,1.5 259.9,1.5 255.4,1.5 250.9,1.5 246.4,1.5 241.9,1.5 237.5,1.5 
	233,1.5 228.5,1.5 224,1.5 219.5,1.5 215.1,1.5 210.6,1.5 206.1,1.5 201.6,1.5 197.1,1.5 192.7,1.5 188.2,1.5 183.7,1.5 179.2,1.5 
	174.7,1.5 170.3,1.5 165.8,1.5 161.3,1.5 156.8,1.5 152.3,1.5 147.9,1.5 143.4,1.5 138.9,1.5 134.4,1.5 129.9,1.5 125.4,1.5 
	121,1.5 116.5,1.5 112,1.5 107.5,1.5 103,1.5 98.6,1.5 94.1,1.5 89.6,1.5 85.1,1.5 80.6,1.5 76.2,1.5 71.7,1.5 67.2,1.5 62.7,1.5 
	58.2,1.5 56.9,1.5 56.9,1.5 53.8,1.5 49.3,1.5 44.8,1.5 40.3,1.5 35.8,1.5 35.4,1.5 31.4,6.6 26.9,12.3 22.4,18 17.9,23.7 
	13.4,29.5 9,35.2 4.5,40.9 0,46.6 0,46.6 4.5,52.3 9,58 13.4,63.7 17.9,69.4 22.4,75.1 26.9,80.8 31.4,86.5 35.4,91.6 35.8,91.6 
	40.3,91.6 44.8,91.6 49.3,91.6 53.8,91.6 58.2,91.6 62.7,91.6 67.2,91.6 71.7,91.6 76.2,91.6 80.6,91.6 85.1,91.6 89.6,91.6 
	94.1,91.6 98.6,91.6 103,91.6 107.5,91.6 112,91.6 116.5,91.6 121,91.6 125.4,91.6 129.9,91.6 134.4,91.6 138.9,91.6 143.4,91.6 
	147.9,91.6 152.3,91.6 156.8,91.6 161.3,91.6 165.8,91.6 170.3,91.6 174.7,91.6 179.2,91.6 183.7,91.6 188.2,91.6 192.7,91.6 
	197.1,91.6 201.6,91.6 206.1,91.6 210.6,91.6 215.1,91.6 219.5,91.6 224,91.6 228.5,91.6 233,91.6 237.5,91.6 241.9,91.6 
	246.4,91.6 250.9,91.6 255.4,91.6 259.9,91.6 264.3,91.6 268.8,91.6 270.2,91.6 273.3,91.6 277.8,91.6 282.3,91.6 286.7,91.6 
	291.2,91.6 291.7,91.6 295.7,86.5 300.2,80.8 304.7,75.1 309.1,69.4 313.6,63.7 318.1,58 322.6,52.3 327.1,46.6 "/>
<g>
	<path d="M294.3,93.1H36.6L0,46.6L36.6,0h257.7l36.6,46.6L294.3,93.1z M38,90.1h254.8l34.2-43.6L292.9,3H38L3.8,46.6L38,90.1z"/>
</g>
<g>
	<path d="M107,26.6h8.7l3.4,20.7c0.6,4.5,1.3,9,1.9,13.5h0.2c0.9-4.5,1.8-9.1,2.7-13.5l4.9-20.7h7.2l4.9,20.7
		c0.9,4.4,1.8,8.9,2.7,13.5h0.3c0.6-4.6,1.3-9.1,1.9-13.5l3.3-20.7h8.1L149.4,69h-10.6l-4.8-21c-0.7-3.3-1.3-6.6-1.8-9.8h-0.2
		c-0.6,3.2-1.1,6.5-1.8,9.8l-4.6,21h-10.4L107,26.6z"/>
	<path d="M163.7,26.6h26v7.1h-17.5v9.8h14.9v7.1h-14.9v11.4h18.2V69h-26.7V26.6z"/>
	<path d="M198.9,26.6H213c8.7,0,15.4,2.5,15.4,10.4c0,3.9-2.2,7.9-5.8,9.2v0.3c4.6,1.1,8,4.3,8,10c0,8.5-7.1,12.5-16.5,12.5h-15.1
		V26.6z M212.3,43.9c5.4,0,7.7-2.2,7.7-5.6c0-3.7-2.5-5.2-7.6-5.2h-5v10.8H212.3z M213.3,62.5c5.8,0,8.9-2.1,8.9-6.5
		c0-4.1-3.1-5.9-8.9-5.9h-5.9v12.3H213.3z"/>
</g>
</svg>
